<svg width="359" height="205" viewBox="0 0 359 205" fill="none" xmlns="http://www.w3.org/2000/svg">
<path fill-rule="evenodd" clip-rule="evenodd" d="M75.4382 69.856L84.3023 58.1937C88.3206 52.9068 94.9287 50.4219 101.336 51.7885C106.296 52.8464 109.48 57.8196 108.446 62.8965C108.36 63.3166 108.247 63.7303 108.106 64.1347C100.742 85.2695 98.3981 99.229 101.074 106.013C112.087 92.6197 168.354 5.28536 186.138 1.1397C192.075 -0.244396 197.985 3.55933 199.337 9.63587C199.794 11.6916 199.68 13.8376 199.007 15.8302C182.203 65.5551 175.089 95.6222 177.664 106.032C186.538 93.2515 199.72 76.0505 217.21 54.4287C223.779 46.307 234.26 42.6674 244.301 45.0203C253.132 47.0894 258.651 56.0929 256.631 65.1303C256.618 65.1897 256.605 65.249 256.589 65.3084C250.504 91.2123 248.248 106.368 249.823 110.775C250.517 110.234 251.223 109.679 251.939 109.11C259.96 102.738 270.003 99.6327 280.13 100.393L358.704 106.294L306.646 112.353C292.113 114.044 278.801 121.486 269.559 133.088L257.101 148.725C253.023 153.845 246.757 156.601 240.321 156.105C233.927 155.612 228.64 150.812 227.401 144.374C224.36 128.56 223.872 109.893 225.941 88.3735C210.309 112.277 196.746 146.654 185.253 191.506C183.276 199.218 176.466 204.595 168.676 204.595C161.237 204.595 155.143 198.547 154.915 190.937L151.47 76.2512L118.155 143.444C114.688 150.437 107.059 154.169 99.5643 152.537C91.6244 150.809 85.0561 145.13 82.0648 137.407L78.3317 127.769C73.0493 114.131 61.1273 104.358 46.9696 102.06C31.4005 99.534 15.8314 97.0076 0.262239 94.4812L34.9418 91.971C50.8958 90.8161 65.6185 82.7762 75.4382 69.856Z" fill="white"/>
</svg>
